<svg width="157" height="151" viewBox="0 0 157 151" fill="none" xmlns="http://www.w3.org/2000/svg">
<rect width="157" height="151" rx="66" fill="#858585"/>
<g clip-path="url(#clip0_2_21)">
<g filter="url(#filter0_d_2_21)">
<path d="M96.0121 89.4999C100.543 83.6672 102.573 76.4357 101.695 69.2521C100.816 62.0685 97.095 55.4626 91.275 50.756C85.4549 46.0494 77.9655 43.5893 70.3051 43.8677C62.6447 44.1461 55.3782 47.1426 49.9593 52.2577C44.5405 57.3727 41.369 64.2292 41.0793 71.4552C40.7896 78.6813 43.4031 85.744 48.3969 91.2305C53.3907 96.717 60.3966 100.223 68.0129 101.046C75.6291 101.869 83.2941 99.9496 89.4744 95.6711H89.4697C89.6101 95.8477 89.7598 96.0154 89.9283 96.1788L107.946 113.174C108.823 114.002 110.013 114.468 111.255 114.468C112.496 114.469 113.687 114.004 114.565 113.176C115.443 112.348 115.937 111.225 115.937 110.055C115.938 108.884 115.445 107.76 114.567 106.932L96.5502 89.9369C96.3829 89.7772 96.203 89.6296 96.0121 89.4955V89.4999ZM97.2194 72.5313C97.2194 75.7196 96.5537 78.8767 95.2602 81.8223C93.9667 84.768 92.0708 87.4444 89.6807 89.6989C87.2906 91.9534 84.4532 93.7418 81.3304 94.9619C78.2076 96.182 74.8606 96.81 71.4805 96.81C68.1004 96.81 64.7534 96.182 61.6306 94.9619C58.5078 93.7418 55.6704 91.9534 53.2803 89.6989C50.8902 87.4444 48.9943 84.768 47.7008 81.8223C46.4073 78.8767 45.7416 75.7196 45.7416 72.5313C45.7416 66.0922 48.4533 59.9168 53.2803 55.3636C58.1073 50.8105 64.6541 48.2525 71.4805 48.2525C78.3069 48.2525 84.8537 50.8105 89.6807 55.3636C94.5077 59.9168 97.2194 66.0922 97.2194 72.5313V72.5313Z" fill="white"/>
</g>
</g>
<defs>
<filter id="filter0_d_2_21" x="37.0576" y="43.8464" width="82.8797" height="78.6217" filterUnits="userSpaceOnUse" color-interpolation-filters="sRGB">
<feFlood flood-opacity="0" result="BackgroundImageFix"/>
<feColorMatrix in="SourceAlpha" type="matrix" values="0 0 0 0 0 0 0 0 0 0 0 0 0 0 0 0 0 0 127 0" result="hardAlpha"/>
<feOffset dy="4"/>
<feGaussianBlur stdDeviation="2"/>
<feComposite in2="hardAlpha" operator="out"/>
<feColorMatrix type="matrix" values="0 0 0 0 0.980392 0 0 0 0 0.764706 0 0 0 0 1 0 0 0 0.25 0"/>
<feBlend mode="normal" in2="BackgroundImageFix" result="effect1_dropShadow_2_21"/>
<feBlend mode="normal" in="SourceGraphic" in2="effect1_dropShadow_2_21" result="shape"/>
</filter>
<clipPath id="clip0_2_21">
<rect width="74.8769" height="70.629" fill="white" transform="translate(41.0615 43.8387)"/>
</clipPath>
</defs>
</svg>
