<svg width="99" height="94" viewBox="0 0 99 94" fill="none" xmlns="http://www.w3.org/2000/svg">
<g clip-path="url(#clip0_2_36)">
<path d="M2.03569 60.7064C5.14052 70.344 11.422 78.7805 19.9555 84.7741C28.489 90.7677 38.8237 94.0017 49.4381 94C76.8116 94 99 72.9558 99 47C99 21.0443 76.8116 3.52373e-06 49.4443 3.52373e-06C36.8792 -0.00461178 24.7817 4.52469 15.6015 12.6708C6.42129 20.8169 0.84437 31.9709 0 43.8745L0.0185625 43.9098L26.6496 54.3026C29.0514 52.7928 31.8962 52.046 34.7737 52.17L46.9012 35.4615L46.8951 35.2265C46.9 30.4875 48.8844 25.9439 52.4131 22.5923C55.9417 19.2408 60.7264 17.3551 65.7174 17.3489C70.7085 17.3551 75.4932 19.2408 79.0218 22.5923C82.5505 25.9439 84.5349 30.4875 84.5398 35.2265C84.5379 37.6078 84.0356 39.9648 83.0624 42.1595C82.0891 44.3542 80.6645 46.3425 78.8719 48.0079C77.0793 49.6733 74.9548 50.9823 72.6227 51.8584C70.2906 52.7345 67.7979 53.16 65.2905 53.11L47.9408 64.86C47.9996 67.0365 47.4845 69.1924 46.4422 71.1317C45.3999 73.071 43.8635 74.7321 41.9728 75.9639C40.0821 77.1958 37.897 77.9593 35.6164 78.185C33.3357 78.4107 31.0318 78.0914 28.9142 77.2563C26.8817 76.4521 25.083 75.1952 23.67 73.5918C22.2571 71.9884 21.2714 70.0856 20.7962 68.0443L2.04188 60.7064H2.03569Z" fill="black"/>
<path d="M30.1208 74.5126C32.6987 75.4469 35.5585 75.3911 38.0938 74.3568C40.629 73.3226 42.6403 71.3914 43.7011 68.9728C44.7618 66.5542 44.7887 63.8383 43.7758 61.4012C42.763 58.9641 40.7903 56.9974 38.2759 55.9182C35.7829 54.9305 32.9858 54.8885 30.4611 55.8007L36.7909 58.2917C37.7375 58.6659 38.5972 59.2135 39.321 59.9032C40.0448 60.5928 40.6184 61.4111 41.0091 62.3112C41.3998 63.2114 41.5999 64.1758 41.5981 65.1494C41.5962 66.123 41.3925 67.0867 40.9984 67.9855C40.6043 68.8843 40.0276 69.7006 39.3013 70.3878C38.5749 71.075 37.7131 71.6197 36.7651 71.9906C35.8171 72.3616 34.8014 72.5516 33.776 72.5499C32.7506 72.5482 31.7356 72.3547 30.789 71.9805L24.6634 69.5717C25.7781 71.8003 27.7221 73.5582 30.1208 74.5067V74.5126ZM53.1754 35.2265C53.177 38.3855 54.4985 41.4148 56.8499 43.6496C59.2013 45.8844 62.3904 47.1422 65.7174 47.1469C69.0444 47.1422 72.2336 45.8844 74.585 43.6496C76.9363 41.4148 78.2579 38.3855 78.2595 35.2265C78.2546 32.0696 76.9316 29.0433 74.5806 26.811C72.2296 24.5787 69.0423 23.3225 65.7174 23.3179C62.3926 23.3225 59.2053 24.5787 56.8543 26.811C54.5033 29.0433 53.1803 32.0696 53.1754 35.2265V35.2265ZM65.736 26.2554C66.9743 26.2561 68.2004 26.4885 69.3441 26.9392C70.4879 27.3898 71.527 28.05 72.402 28.8819C73.2771 29.7139 73.971 30.7014 74.4441 31.7879C74.9173 32.8745 75.1604 34.039 75.1596 35.2147C75.1588 36.3905 74.914 37.5547 74.4394 38.6407C73.9648 39.7266 73.2695 40.7132 72.3933 41.5441C71.5171 42.375 70.4771 43.0338 69.3327 43.4831C68.1883 43.9323 66.962 44.1631 65.7236 44.1624C63.2227 44.1608 60.8249 43.216 59.0576 41.5358C57.2903 39.8556 56.2984 37.5776 56.3001 35.203C56.3017 32.8284 57.2968 30.5516 59.0664 28.8736C60.8359 27.1956 63.2351 26.2538 65.736 26.2554V26.2554Z" fill="black"/>
</g>
<defs>
<clipPath id="clip0_2_36">
<rect width="99" height="94" fill="white"/>
</clipPath>
</defs>
</svg>
